# xmcd
#
# Track frame offsets:
#	150
#	12878
#	26063
#	42849
#	55844
#	70380
#	85581
#	100566
#	118414
#	131500
#
# Disc length: 2011 seconds
#
# Revision: 1
# Processed by: cddbd v1.5.2PL0 Copyright (c) Steve Scherf et al.
# Submitted via: EZCDAudioConverter 6.0.5.1
#
DISCID=7d07d90a
DTITLE=Sawyer Brown - Best Of Sawyer Brown
DYEAR=2008
DGENRE=Country
TTITLE0=Step That Step
TTITLE1=The Race Is On
TTITLE2=The Walk
TTITLE3=The Dirt Road
TTITLE4=Some Girls Do
TTITLE5=All These Years
TTITLE6=Thank God For You
TTITLE7=This Night Won't Last Forever
TTITLE8=Six Days On The Road
TTITLE9=They Dont Understand
EXTD=
EXTT0=
EXTT1=
EXTT2=
EXTT3=
EXTT4=
EXTT5=
EXTT6=
EXTT7=
EXTT8=
EXTT9=
PLAYORDER=
